<svg id="圖層_1" data-name="圖層 1" xmlns="http://www.w3.org/2000/svg" viewBox="0 0 24 24"><defs><style>.cls-1{fill:#377ebb;}</style></defs><path class="cls-1" d="M11.17,7.05H8.7V4.57a.83.83,0,0,0-1.65,0V7.05H4.58a.83.83,0,1,0,0,1.65H7.05v2.48a.83.83,0,0,0,1.65,0V8.7h2.47a.83.83,0,1,0,0-1.65Z"/><g id="Group_1674" data-name="Group 1674"><path id="Path_1120" data-name="Path 1120" class="cls-1" d="M17.26,7.88l3,3-1.12.37L16.89,9Z"/><path id="Subtraction_18" data-name="Subtraction 18" class="cls-1" d="M9,19.88H9l1.22-1.22a2.12,2.12,0,1,0-.74-.75L8.25,19.13l-.37-4.85,8.26-4.54L18.38,12l-4.53,8.27L9,19.88Z"/><circle id="Ellipse_96" data-name="Ellipse 96" class="cls-1" cx="11.29" cy="16.84" r="1.06"/></g></svg>