<svg id="圖層_1" data-name="圖層 1" xmlns="http://www.w3.org/2000/svg" viewBox="0 0 24 24"><defs><style>.cls-1,.cls-2{fill:#1E689B;}.cls-1{fill-rule:evenodd;}</style></defs><g id="Mask_Group_25" data-name="Mask Group 25"><g id="Component_57_4" data-name="Component 57 4"><g id="Group_380" data-name="Group 380"><path id="Path_191" data-name="Path 191" class="cls-1" d="M7.7,7.12h8.6a.57.57,0,0,1,.57.57v8.62a.57.57,0,0,1-.57.57H7.7a.57.57,0,0,1-.57-.57V7.69A.57.57,0,0,1,7.7,7.12ZM8,8v8.1H16V8Z"/><rect id="Rectangle_109" data-name="Rectangle 109" class="cls-2" x="16.81" y="11.16" width="0.45" height="1.67"/><rect id="Rectangle_110" data-name="Rectangle 110" class="cls-2" x="6.74" y="11.16" width="0.57" height="1.67"/><path id="Path_192" data-name="Path 192" class="cls-1" d="M15.55,6.78c-.67-.86.12-2.87-1.9-2.78H10.36c-2-.09-1.24,1.92-1.91,2.78Z"/><path id="Path_193" data-name="Path 193" class="cls-1" d="M15.55,17.22c-.67.86.12,2.87-1.9,2.78H10.36c-2,.09-1.24-1.92-1.91-2.78Z"/><path id="Path_194" data-name="Path 194" class="cls-1" d="M12,14a.81.81,0,0,1,.81.81.81.81,0,1,1-1.62,0A.81.81,0,0,1,12,14Z"/><path id="Path_195" data-name="Path 195" class="cls-1" d="M15.14,10.19a.81.81,0,0,1-.3,1.11A.81.81,0,0,1,14,9.89h0A.81.81,0,0,1,15.14,10.19Z"/><path id="Path_196" data-name="Path 196" class="cls-1" d="M10.27,13a.81.81,0,0,1-.3,1.11.81.81,0,0,1-.81-1.41.82.82,0,0,1,1.11.3Z"/><path id="Path_197" data-name="Path 197" class="cls-1" d="M15.14,13.81A.81.81,0,0,1,13.73,13a.81.81,0,0,1,1.11-.3h0A.81.81,0,0,1,15.14,13.81Z"/><path id="Path_198" data-name="Path 198" class="cls-1" d="M10.27,11a.81.81,0,1,1-1.41-.81A.81.81,0,0,1,10,9.89a.81.81,0,0,1,.3,1.11Z"/><path id="Path_199" data-name="Path 199" class="cls-1" d="M12,11.06a.94.94,0,1,1-.94.94.94.94,0,0,1,.94-.94Z"/><path id="Path_200" data-name="Path 200" class="cls-1" d="M12,8.37a.82.82,0,0,1,.81.82.81.81,0,0,1-1.62,0A.82.82,0,0,1,12,8.37Z"/></g></g></g></svg>