<svg id="圖層_1" data-name="圖層 1" xmlns="http://www.w3.org/2000/svg" viewBox="0 0 24 24"><defs><style>.cls-1{fill:#377ebb;}</style></defs><g id="Group_1674" data-name="Group 1674"><path id="Path_1120" data-name="Path 1120" class="cls-1" d="M17,7.63l3,3L18.88,11,16.64,8.75Z"/><path id="Subtraction_18" data-name="Subtraction 18" class="cls-1" d="M8.74,19.63h0L10,18.41a2.12,2.12,0,1,0-.74-.75L8,18.88,7.63,14l8.26-4.54,2.24,2.24L13.6,20l-4.86-.37Z"/><circle id="Ellipse_96" data-name="Ellipse 96" class="cls-1" cx="11.04" cy="16.59" r="1.06"/></g><path class="cls-1" d="M6.87,19.5a.81.81,0,0,1-.34-.08,4.93,4.93,0,0,1-2.43-3A4.94,4.94,0,0,1,5.27,12.3C6.66,10.45,7.2,8.72,6.8,7.43a3.21,3.21,0,0,0-2.17-2A.75.75,0,0,1,5.1,4,4.63,4.63,0,0,1,8.23,7c.39,1.25.4,3.34-1.76,6.22a3.57,3.57,0,0,0-.91,2.9,3.42,3.42,0,0,0,1.65,2,.75.75,0,0,1-.34,1.42Z"/></svg>