<svg id="圖層_1" data-name="圖層 1" xmlns="http://www.w3.org/2000/svg" viewBox="0 0 24 24"><defs><style>.cls-1{fill:#fff;}</style></defs><path class="cls-1" d="M12,9.14A2.86,2.86,0,1,0,14.86,12,2.86,2.86,0,0,0,12,9.14Z"/><path class="cls-1" d="M20,11.25H18.7A6.8,6.8,0,0,0,12.75,5.3V4a.25.25,0,0,0-.25-.25h-1a.25.25,0,0,0-.25.25V5.3a6.8,6.8,0,0,0-5.95,6H4a.25.25,0,0,0-.25.25v1a.25.25,0,0,0,.25.25H5.3a6.8,6.8,0,0,0,6,5.95V20a.25.25,0,0,0,.25.25h1a.25.25,0,0,0,.25-.25V18.7a6.8,6.8,0,0,0,5.95-5.95H20a.25.25,0,0,0,.25-.25v-1A.25.25,0,0,0,20,11.25Zm-8,6A5.25,5.25,0,1,1,17.25,12,5.26,5.26,0,0,1,12,17.25Z"/></svg>
