<svg id="圖層_1" data-name="圖層 1" xmlns="http://www.w3.org/2000/svg" viewBox="0 0 24 24"><defs><style>.cls-1{fill:#fff;}</style></defs><path class="cls-1" d="M5.22,3.89a.24.24,0,0,0-.44,0l-1,2a.2.2,0,0,0,0,.11V20a.25.25,0,0,0,.25.25H6A.25.25,0,0,0,6.25,20V6a.2.2,0,0,0,0-.11Z"/><path class="cls-1" d="M12.22,3.89a.24.24,0,0,0-.44,0l-1,2a.2.2,0,0,0,0,.11V20a.25.25,0,0,0,.25.25h2a.25.25,0,0,0,.25-.25V6a.2.2,0,0,0,0-.11Z"/><path class="cls-1" d="M20.22,5.89l-1-2a.24.24,0,0,0-.44,0l-1,2a.2.2,0,0,0,0,.11V20a.25.25,0,0,0,.25.25h2a.25.25,0,0,0,.25-.25V6A.2.2,0,0,0,20.22,5.89Z"/><rect class="cls-1" x="6.75" y="12.42" width="3.5" height="1.83" rx="0.25"/><rect class="cls-1" x="13.75" y="12.42" width="3.5" height="1.83" rx="0.25"/><rect class="cls-1" x="6.75" y="9.08" width="3.5" height="1.83" rx="0.25"/><rect class="cls-1" x="13.75" y="9.08" width="3.5" height="1.83" rx="0.25"/><rect class="cls-1" x="6.75" y="15.75" width="3.5" height="1.83" rx="0.25"/><rect class="cls-1" x="13.75" y="15.75" width="3.5" height="1.83" rx="0.25"/></svg>
