<svg id="圖層_1" data-name="圖層 1" xmlns="http://www.w3.org/2000/svg" viewBox="0 0 24 24"><defs><style>.cls-1{fill:gray;}</style></defs><path class="cls-1" d="M11,15.75H9.25v-1.5A.25.25,0,0,0,9,14H8.74a.25.25,0,0,0-.25.25V16l-1.36-.79a.33.33,0,0,0-.13,0,.28.28,0,0,0-.25.25V20a.25.25,0,0,0,.25.25H9A.25.25,0,0,0,9.25,20V17.58H11a.25.25,0,0,0,.25-.25V16A.25.25,0,0,0,11,15.75Z"/><path class="cls-1" d="M7,8.79a.33.33,0,0,0,.13,0L8.49,8V9.75a.25.25,0,0,0,.25.25H11a.25.25,0,0,0,.25-.25V9.33A.25.25,0,0,0,11,9.08H9.25V6a.2.2,0,0,0,0-.11l-1-2a.24.24,0,0,0-.44,0l-1,2a.2.2,0,0,0,0,.11V8.54A.28.28,0,0,0,7,8.79Z"/><path class="cls-1" d="M17,15.75H14.25v-1.5A.25.25,0,0,0,14,14H12a.25.25,0,0,0-.25.25V20a.25.25,0,0,0,.25.25h2a.25.25,0,0,0,.25-.25V17.58H17a.25.25,0,0,0,.25-.25V16A.25.25,0,0,0,17,15.75Z"/><path class="cls-1" d="M20.22,5.89l-1-2a.24.24,0,0,0-.44,0l-1,2a.2.2,0,0,0,0,.11V20a.25.25,0,0,0,.25.25h2a.25.25,0,0,0,.25-.25V6A.2.2,0,0,0,20.22,5.89Z"/><path class="cls-1" d="M17,9.08H14.25V6a.2.2,0,0,0,0-.11l-1-2a.24.24,0,0,0-.44,0l-1,2a.2.2,0,0,0,0,.11V9.75A.25.25,0,0,0,12,10h4.25v.67a.25.25,0,0,0,.25.25H17a.25.25,0,0,0,.25-.25V9.33A.25.25,0,0,0,17,9.08Z"/><rect class="cls-1" x="16.25" y="12.42" width="1" height="1.83" rx="0.25"/><path class="cls-1" d="M7.24,14.12l.12,0a.26.26,0,0,0,.13-.22V13H15a.25.25,0,0,0,.25-.25v-1.5A.25.25,0,0,0,15,11H7.49v-.87a.26.26,0,0,0-.13-.22l-.12,0a.31.31,0,0,0-.13,0L3.88,11.78a.25.25,0,0,0,0,.44l3.23,1.87A.31.31,0,0,0,7.24,14.12Z"/></svg>