<svg id="圖層_1" data-name="圖層 1" xmlns="http://www.w3.org/2000/svg" viewBox="0 0 24 24"><defs><style>.cls-1,.cls-2{fill:#1E689B;}.cls-2{fill-rule:evenodd;}</style></defs><rect class="cls-1" x="13.75" y="9.08" width="3.5" height="1.83" rx="0.25"/><rect class="cls-1" x="6.75" y="9.08" width="3.5" height="1.83" rx="0.25"/><rect class="cls-1" x="6.75" y="12.42" width="3.5" height="1.83" rx="0.25"/><rect class="cls-1" x="6.75" y="15.75" width="3.5" height="1.83" rx="0.25"/><path class="cls-2" d="M5.22,3.89a.24.24,0,0,0-.44,0l-1,2a.2.2,0,0,0,0,.11V20a.25.25,0,0,0,.25.25H6A.25.25,0,0,0,6.25,20V6a.2.2,0,0,0,0-.11Z"/><path class="cls-2" d="M20.22,5.89l-1-2a.24.24,0,0,0-.44,0l-1,2a.2.2,0,0,0,0,.11v5.42a.25.25,0,0,0,.15.23,4.77,4.77,0,0,1,1.9,1.53.26.26,0,0,0,.2.1l.08,0a.25.25,0,0,0,.17-.23V6A.2.2,0,0,0,20.22,5.89Z"/><path class="cls-2" d="M20.08,18.74l-.08,0a.26.26,0,0,0-.2.1,5.05,5.05,0,0,1-1,1,.25.25,0,0,0,.15.45h1a.25.25,0,0,0,.25-.25V19A.25.25,0,0,0,20.08,18.74Z"/><path class="cls-2" d="M11.25,16a4.7,4.7,0,0,1,1.9-3.78.26.26,0,0,0,.1-.2V6a.2.2,0,0,0,0-.11l-1-2a.24.24,0,0,0-.44,0l-1,2a.2.2,0,0,0,0,.11V20a.25.25,0,0,0,.25.25h2a.27.27,0,0,0,.25-.27.26.26,0,0,0-.1-.2A4.7,4.7,0,0,1,11.25,16Z"/><path class="cls-2" d="M19.39,18.34l-.46-.91.16-.39,1-.34a.3.3,0,0,0,.19-.27v-.9a.29.29,0,0,0-.19-.27l-1-.32-.16-.38.45-.93a.29.29,0,0,0-.06-.33l-.64-.64a.3.3,0,0,0-.2-.08.31.31,0,0,0-.13,0l-.91.46-.38-.16-.35-1a.28.28,0,0,0-.26-.19h-.91a.29.29,0,0,0-.27.2l-.32,1-.39.16-.93-.44a.27.27,0,0,0-.12,0,.3.3,0,0,0-.2.08l-.64.64a.27.27,0,0,0-.05.33l.45.91-.15.39-1,.34a.29.29,0,0,0-.19.27v.9a.29.29,0,0,0,.19.27l1,.32.16.38-.45.93a.29.29,0,0,0,.06.33l.64.64a.3.3,0,0,0,.2.08.31.31,0,0,0,.13,0l.91-.46.38.16.35,1a.28.28,0,0,0,.26.19h.9a.27.27,0,0,0,.27-.2l.32-1,.39-.16.93.44a.27.27,0,0,0,.12,0,.28.28,0,0,0,.2-.08l.64-.64A.29.29,0,0,0,19.39,18.34Zm-2-2.34A1.42,1.42,0,1,1,16,14.58,1.42,1.42,0,0,1,17.42,16Z"/></svg>