<svg id="圖層_1" data-name="圖層 1" xmlns="http://www.w3.org/2000/svg" viewBox="0 0 24 24"><defs><style>.cls-1{fill:gray;}</style></defs><path class="cls-1" d="M17,16.75H14.25V15.31a.27.27,0,0,0-.12-.22.31.31,0,0,0-.13,0,.24.24,0,0,0-.12,0l-2,1.16a.24.24,0,0,0-.13.21V21a.25.25,0,0,0,.25.25h2a.25.25,0,0,0,.25-.25V18.58H17a.25.25,0,0,0,.25-.25V17A.25.25,0,0,0,17,16.75Z"/><path class="cls-1" d="M11,16.79a.17.17,0,0,0-.12,0l-.37.21v0a.25.25,0,0,0-.25-.25h-1v-1.5A.25.25,0,0,0,9,15H8.74a.25.25,0,0,0-.25.25V17l-1.36-.79a.33.33,0,0,0-.13,0,.28.28,0,0,0-.25.25V21a.25.25,0,0,0,.25.25H9A.25.25,0,0,0,9.25,21V18.58H11a.25.25,0,0,0,.25-.25V17a.24.24,0,0,0-.12-.21A.22.22,0,0,0,11,16.79Z"/><path class="cls-1" d="M7,9.79a.33.33,0,0,0,.13,0L8.49,9v1.79a.25.25,0,0,0,.25.25h1.52a.25.25,0,0,0,.25-.25v-.42a.25.25,0,0,0-.25-.25h-1V7a.2.2,0,0,0,0-.11l-1-2a.24.24,0,0,0-.44,0l-1,2a.2.2,0,0,0,0,.11V9.54A.28.28,0,0,0,7,9.79Z"/><path class="cls-1" d="M17,10.08H14.25V7a.2.2,0,0,0,0-.11l-1-2a.24.24,0,0,0-.44,0l-1,2a.2.2,0,0,0,0,.11V9.54a.24.24,0,0,0,.13.21l3.69,2.13a.17.17,0,0,0,.12,0H17a.25.25,0,0,0,.25-.25V10.33A.25.25,0,0,0,17,10.08Z"/><path class="cls-1" d="M20.22,6.89l-1-2a.24.24,0,0,0-.44,0l-1,2a.2.2,0,0,0,0,.11V21a.25.25,0,0,0,.25.25h2a.25.25,0,0,0,.25-.25V7A.2.2,0,0,0,20.22,6.89Z"/><path class="cls-1" d="M17,13.42h-.15a.28.28,0,0,0-.13,0l-2.31,1.33a.27.27,0,0,0-.12.28.26.26,0,0,0,.25.19H17a.25.25,0,0,0,.25-.25V13.67A.25.25,0,0,0,17,13.42Z"/><path class="cls-1" d="M11.89,15.09l3.24-1.87a.26.26,0,0,0,0-.44l-3.24-1.87a.31.31,0,0,0-.13,0l-.12,0a.26.26,0,0,0-.13.22V12h-4v-.87a.26.26,0,0,0-.13-.22l-.12,0a.31.31,0,0,0-.13,0L3.88,12.78a.25.25,0,0,0,0,.44l3.23,1.87a.31.31,0,0,0,.13,0l.12,0a.26.26,0,0,0,.13-.22V14h4v.87a.26.26,0,0,0,.13.22l.12,0A.31.31,0,0,0,11.89,15.09Z"/></svg>