<svg id="圖層_1" data-name="圖層 1" xmlns="http://www.w3.org/2000/svg" viewBox="0 0 24 24"><defs><style>.cls-1{fill:gray;}</style></defs><path class="cls-1" d="M11,15.79a.17.17,0,0,0-.12,0l-.37.21v0a.25.25,0,0,0-.25-.25h-1v-1.5A.25.25,0,0,0,9,14H7a.25.25,0,0,0-.25.25V20a.25.25,0,0,0,.25.25H9A.25.25,0,0,0,9.25,20V17.58H11a.25.25,0,0,0,.25-.25V16a.24.24,0,0,0-.12-.21A.22.22,0,0,0,11,15.79Z"/><path class="cls-1" d="M17,15.75H14.25V14.31a.27.27,0,0,0-.12-.22.31.31,0,0,0-.13,0,.24.24,0,0,0-.12,0l-2,1.16a.24.24,0,0,0-.13.21V20a.25.25,0,0,0,.25.25h2a.25.25,0,0,0,.25-.25V17.58H17a.25.25,0,0,0,.25-.25V16A.25.25,0,0,0,17,15.75Z"/><path class="cls-1" d="M17,9.08H14.25V6a.2.2,0,0,0,0-.11l-1-2a.24.24,0,0,0-.44,0l-1,2a.2.2,0,0,0,0,.11V8.54a.24.24,0,0,0,.13.21l3.69,2.13a.17.17,0,0,0,.12,0H17a.25.25,0,0,0,.25-.25V9.33A.25.25,0,0,0,17,9.08Z"/><path class="cls-1" d="M17,12.42h-.16l-.12,0-2.31,1.33a.27.27,0,0,0-.12.28.26.26,0,0,0,.25.19H17a.25.25,0,0,0,.25-.25V12.67A.25.25,0,0,0,17,12.42Z"/><path class="cls-1" d="M20.22,5.89l-1-2a.24.24,0,0,0-.44,0l-1,2a.2.2,0,0,0,0,.11V20a.25.25,0,0,0,.25.25h2a.25.25,0,0,0,.25-.25V6A.2.2,0,0,0,20.22,5.89Z"/><path class="cls-1" d="M7,10h3.26a.25.25,0,0,0,.25-.25V9.33a.25.25,0,0,0-.25-.25h-1V6a.2.2,0,0,0,0-.11l-1-2a.24.24,0,0,0-.44,0l-1,2a.2.2,0,0,0,0,.11V9.75A.25.25,0,0,0,7,10Z"/><path class="cls-1" d="M11.89,14.09l3.24-1.87a.26.26,0,0,0,0-.44L11.89,9.91a.31.31,0,0,0-.13,0l-.12,0a.26.26,0,0,0-.13.22V11H4a.25.25,0,0,0-.25.25v1.5A.25.25,0,0,0,4,13h7.51v.87a.26.26,0,0,0,.13.22l.12,0A.31.31,0,0,0,11.89,14.09Z"/></svg>