<svg id="圖層_1" data-name="圖層 1" xmlns="http://www.w3.org/2000/svg" viewBox="0 0 24 24"><defs><style>.cls-1{fill:#1E689B;}</style></defs><path class="cls-1" d="M12,19.83a.23.23,0,0,1-.14,0A33.31,33.31,0,0,1,5.52,14.1H4a.25.25,0,0,1-.25-.25v-.67A.25.25,0,0,1,4,12.93h.7a5.46,5.46,0,0,1-1-2.78c0-4.31,2.93-6.32,4.92-6.32A3.77,3.77,0,0,1,12,5.56a3.72,3.72,0,0,1,3.34-1.73c2,0,4.92,2,4.92,6.32a5.46,5.46,0,0,1-.95,2.78H20a.25.25,0,0,1,.25.25v.67a.25.25,0,0,1-.25.25H18.48a33.31,33.31,0,0,1-6.34,5.69A.23.23,0,0,1,12,19.83ZM7.05,14.1a31.77,31.77,0,0,0,5,4.36A32.23,32.23,0,0,0,17,14.1H15.67a.57.57,0,0,1-.41-.17L13,11.65l-2.26,2.28a.57.57,0,0,1-.41.17.51.51,0,0,1-.39-.16l-1-1-1,1a.55.55,0,0,1-.4.16ZM17.9,12.93a5.13,5.13,0,0,0,1.18-2.78C19.08,6.64,16.85,5,15.33,5A2.43,2.43,0,0,0,12.87,6.4.91.91,0,0,1,12,7a.93.93,0,0,1-.88-.6A2.52,2.52,0,0,0,8.67,5C7.15,5,4.92,6.64,4.92,10.15A5.05,5.05,0,0,0,6.1,12.93H7.27l1.25-1.19a.59.59,0,0,1,.4-.16.57.57,0,0,1,.39.16l1,1,2.27-2.29a.58.58,0,0,1,.41-.17.57.57,0,0,1,.41.17l2.5,2.52Z"/></svg>