<svg id="healthOn" xmlns="http://www.w3.org/2000/svg" xmlns:xlink="http://www.w3.org/1999/xlink" width="24" height="24" viewBox="0 0 24 24">
  <defs>
    <clipPath id="clip-path">
      <rect id="Rectangle_1123" data-name="Rectangle 1123" width="24" height="24" transform="translate(1994 508)" fill="#1e689b"/>
    </clipPath>
  </defs>
  <g id="Mask_Group_301" data-name="Mask Group 301" transform="translate(-1994 -508)" clip-path="url(#clip-path)">
    <g id="Group_3110" data-name="Group 3110" transform="translate(-1 -13)">
      <path id="Path_1499" data-name="Path 1499" d="M22.659,5.438H8.218A2.928,2.928,0,0,0,5.438,8.5V24.381a2.928,2.928,0,0,0,2.779,3.057H22.659a2.928,2.928,0,0,0,2.779-3.057V8.5a2.928,2.928,0,0,0-2.779-3.057Zm.967,18.876a1.019,1.019,0,0,1-.967,1.063H8.218a1.019,1.019,0,0,1-.967-1.063V8.5a1.019,1.019,0,0,1,.967-1.063H22.659A1.019,1.019,0,0,1,23.625,8.5Z" transform="translate(1991.562 516.562)" fill="#fff"/>
      <path id="Path_1500" data-name="Path 1500" d="M17.6,9.136a5.911,5.911,0,0,0-6,5.818.591.591,0,0,0,.6.582H23a.591.591,0,0,0,.6-.582A5.911,5.911,0,0,0,17.6,9.136Zm4.77,5.251H17.946l-2.16-2.313.75,2.3h-3.69a4.387,4.387,0,0,1,.33-1.207l.495.276.6-1-.48-.276a4.73,4.73,0,0,1,.915-.887l.285.465,1.035-.582-.285-.465a5.336,5.336,0,0,1,1.26-.32v.538h1.2v-.538a5.364,5.364,0,0,1,1.26.335l-.27.465,1.035.582.27-.465a4.438,4.438,0,0,1,.93.887l-.48.262.6,1,.555-.276A4.364,4.364,0,0,1,22.371,14.387Z" transform="translate(1989.399 516.562)" fill="#fff"/>
    </g>
  </g>
</svg>
