<svg id="Layer_2" data-name="Layer 2" xmlns="http://www.w3.org/2000/svg" width="24" height="24" viewBox="0 0 24 24">
  <g id="alert-triangle">
    <rect id="Rectangle_1865" data-name="Rectangle 1865" width="24" height="24" transform="translate(24) rotate(90)" fill="#ffb83b" opacity="0"/>
    <g id="Group_3110" data-name="Group 3110" transform="translate(-0.013 0.003)">
      <path id="Path_3611" data-name="Path 3611" d="M22.573,17.051,14.9,3.663a3.343,3.343,0,0,0-5.784,0L1.44,17.051a3.3,3.3,0,0,0-.05,3.157A3.346,3.346,0,0,0,4.332,22H19.681a3.342,3.342,0,0,0,2.942-1.747,3.3,3.3,0,0,0-.05-3.2Zm-1.7,2.158a1.3,1.3,0,0,1-1.191.684H4.332a1.3,1.3,0,0,1-1.191-.684,1.1,1.1,0,0,1,0-1.052l7.685-13.4a1.438,1.438,0,0,1,2.361,0l7.675,13.387a1.1,1.1,0,0,1,.01,1.063Z" transform="translate(0 0)" fill="#ffb83b"/>
      <ellipse id="Ellipse_133" data-name="Ellipse 133" cx="1" cy="1.052" rx="1" ry="1.052" transform="translate(11.007 15.683)" fill="#ffb83b"/>
      <path id="Path_3612" data-name="Path 3612" d="M12,8a1.027,1.027,0,0,0-1,1.052v4.207a1,1,0,1,0,2,0V9.052A1.027,1.027,0,0,0,12,8Z" transform="translate(0.007 0.317)" fill="#ffb83b"/>
    </g>
  </g>
</svg>
