<svg id="圖層_1" data-name="圖層 1" xmlns="http://www.w3.org/2000/svg" viewBox="0 0 24 24"><defs><style>.cls-1{fill:#1E689B;}</style></defs><path class="cls-1" d="M19.13,11a4,4,0,0,0-2.81-1.19,4,4,0,0,0-3.9,4A5,5,0,0,0,13,15.76l.14.25c-.46,1-1.11,1.2-1.47,1.21a1.2,1.2,0,0,1-1.07-.62.66.66,0,0,1,.22-.76c1.23-1.22,1.63-2.71,1-3.78a2.11,2.11,0,0,0-1.66-1c.29-.45.53-.87.74-1.26a5,5,0,0,0,.62-2A3.88,3.88,0,0,0,10.46,5,4,4,0,0,0,7.65,3.78,4,4,0,0,0,4.87,5,3.9,3.9,0,0,0,3.75,7.81a5,5,0,0,0,.62,2A18.09,18.09,0,0,0,5.77,12,22.46,22.46,0,0,0,7.48,14.2a.26.26,0,0,0,.19.08.23.23,0,0,0,.18-.08,24.4,24.4,0,0,0,1.57-2,3.75,3.75,0,0,1,.45,0,1.08,1.08,0,0,1,1,.45c.28.48.13,1.43-.83,2.39a1.8,1.8,0,0,0-.47,2,2.35,2.35,0,0,0,2.16,1.33,2.58,2.58,0,0,0,2.14-1.21c.19.29.38.58.58.85a22.46,22.46,0,0,0,1.71,2.18.23.23,0,0,0,.18.08.27.27,0,0,0,.19-.08A25.47,25.47,0,0,0,18.23,18a19.68,19.68,0,0,0,1.4-2.26,5,5,0,0,0,.62-2A3.92,3.92,0,0,0,19.13,11ZM9.63,9.06a16.28,16.28,0,0,1-1.3,2.1c-.21.31-.43.61-.66.91-.24-.3-.46-.61-.68-.92A16.73,16.73,0,0,1,5.68,9a3.55,3.55,0,0,1-.43-1.31A2.4,2.4,0,0,1,5.94,6a2.5,2.5,0,0,1,1.73-.75A2.53,2.53,0,0,1,9.39,6a2.39,2.39,0,0,1,.69,1.68A3.47,3.47,0,0,1,9.63,9.06Zm8.67,6a17,17,0,0,1-1.3,2.1c-.21.31-.44.61-.67.91-.23-.3-.45-.61-.67-.92A16.73,16.73,0,0,1,14.35,15a3.37,3.37,0,0,1-.43-1.31A2.4,2.4,0,0,1,14.61,12a2.48,2.48,0,0,1,1.72-.75,2.53,2.53,0,0,1,1.73.74,2.44,2.44,0,0,1,.69,1.68A3.47,3.47,0,0,1,18.3,15.06Z"/><path class="cls-1" d="M7.67,6A1.34,1.34,0,1,0,9,7.37,1.34,1.34,0,0,0,7.67,6Z"/><path class="cls-1" d="M16.33,12a1.34,1.34,0,1,0,1.34,1.34A1.34,1.34,0,0,0,16.33,12Z"/></svg>