<svg id="圖層_1" data-name="圖層 1" xmlns="http://www.w3.org/2000/svg" viewBox="0 0 24 24"><defs><style>.cls-1{fill:gray;}</style></defs><path class="cls-1" d="M11.5,16.69h1a.15.15,0,0,0,.15-.15V9.85l2.6,2.79a.12.12,0,0,0,.1,0h0a.18.18,0,0,0,.1,0l.73-.68a.16.16,0,0,0,0-.22L12.11,7.36a.15.15,0,0,0-.22,0L7.8,11.75a.16.16,0,0,0,0,.22l.73.68a.18.18,0,0,0,.1,0h0a.12.12,0,0,0,.1,0l2.6-2.8v6.7A.15.15,0,0,0,11.5,16.69Z"/><path class="cls-1" d="M20.25,12a8.26,8.26,0,1,0-5.07,7.61,1.12,1.12,0,0,0,.58.17,1.19,1.19,0,1,0-1.19-1.19h0A7.08,7.08,0,1,1,19.08,12a6.75,6.75,0,0,1-.41,2.34h-.08A1.43,1.43,0,1,0,20,15.76a1.34,1.34,0,0,0-.3-.86A8.1,8.1,0,0,0,20.25,12Zm-1.66,4.22a.46.46,0,1,1,0-.91.46.46,0,0,1,0,.91Z"/></svg>