<svg xmlns="http://www.w3.org/2000/svg" xmlns:xlink="http://www.w3.org/1999/xlink" width="24" height="24" viewBox="0 0 24 24">
  <defs>
    <clipPath id="clip-path">
      <rect id="Rectangle_1855" data-name="Rectangle 1855" width="24" height="24" transform="translate(-3387 478)" fill="#1e689b"/>
    </clipPath>
  </defs>
  <g id="button_warning_off" transform="translate(3387 -478)" clip-path="url(#clip-path)">
    <g id="icon_0_warning" transform="translate(-3392.709 472.402)">
      <path id="Path_3602" data-name="Path 3602" d="M17.679,29.466a3.138,3.138,0,0,0,3.2-2.46H14.482A3.138,3.138,0,0,0,17.679,29.466Z" fill="#1e689b"/>
      <path id="Path_3603" data-name="Path 3603" d="M29.024,24.884c-1.812-1.473-3.123-2.563-3.359-7.366A6.1,6.1,0,0,0,23.572,5.731,6.188,6.188,0,0,0,19.536,7.2h-.162A1.665,1.665,0,0,0,17.62,5.731,1.621,1.621,0,0,0,16,7.2c-2.416.427-6.261,2.136-6.261,8.678,0,6.276-1.473,7.366-3.389,9.031l-.6.5a.206.206,0,0,0,0,.236.221.221,0,0,0,.206.147H29.466a.221.221,0,0,0,.206-.147.206.206,0,0,0,0-.236ZM23.572,7.5a4.287,4.287,0,1,1-4.287,4.287A4.287,4.287,0,0,1,23.572,7.5ZM9.827,23.926c1.238-1.783,1.738-4.169,1.738-8.088s1.694-6.409,4.906-6.895l1.208-.192.545.088a5.893,5.893,0,0,0-.781,2.947A6.114,6.114,0,0,0,23.572,17.9h.295a11.4,11.4,0,0,0,1.665,6.055Z" fill="#1e689b"/>
      <path id="Path_3604" data-name="Path 3604" d="M23.676,14.276a1.473,1.473,0,0,0,1.164-.53,3.433,3.433,0,0,0,.516-2.107,3.536,3.536,0,0,0-.5-2.107,1.558,1.558,0,0,0-2.343,0A3.374,3.374,0,0,0,22,11.624a3.359,3.359,0,0,0,.471,2.063A1.473,1.473,0,0,0,23.676,14.276Zm-.545-3.963a.972.972,0,0,1,.221-.413A.56.56,0,0,1,24,9.9a1.017,1.017,0,0,1,.221.457,5.657,5.657,0,0,1,.1,1.252,6.085,6.085,0,0,1-.1,1.282A.825.825,0,0,1,24,13.3a.545.545,0,0,1-.324.118.471.471,0,0,1-.324-.118.869.869,0,0,1-.221-.442,5.893,5.893,0,0,1-.088-1.252A6.644,6.644,0,0,1,23.13,10.313Z" fill="#1e689b"/>
    </g>
  </g>
</svg>
