<svg xmlns="http://www.w3.org/2000/svg" width="24" height="24" viewBox="0 0 24 24">
  <g id="Group_395" data-name="Group 395" transform="translate(-636 -457.002)">
    <path id="Path_502" data-name="Path 502" d="M23.987,22.8H5.049a2.564,2.564,0,0,1-2.112-1.078,2.284,2.284,0,0,1-.213-2.269l2.71-6A2.531,2.531,0,0,1,7.76,12H8.8v2.4H7.76l-2.712,6H23.987l-2.712-6H20.191V12h1.084A2.532,2.532,0,0,1,23.6,13.459l2.71,6a2.284,2.284,0,0,1-.213,2.266A2.561,2.561,0,0,1,23.987,22.8Z" transform="translate(633.483 458.2)" fill="#c4dcf1"/>
    <path id="Path_505" data-name="Path 505" d="M123.8,64.347a7.225,7.225,0,0,0-5.69,2.834,7.094,7.094,0,0,0-1.2,6.2,7,7,0,0,0,.526,1.347l4.992,8.436a1.661,1.661,0,0,0,2.864,0l4.957-8.4a7.088,7.088,0,0,0-.26-7.013A7.216,7.216,0,0,0,123.8,64.347Zm.077,10.688a3.56,3.56,0,1,1,3.591-3.56A3.575,3.575,0,0,1,123.876,75.035Z" transform="translate(524.149 392.655)" fill="#c4dcf1"/>
  </g>
</svg>
