<svg id="Component_76_1" data-name="Component 76 – 1" xmlns="http://www.w3.org/2000/svg" width="24" height="24" viewBox="0 0 24 24">
  <g id="Group_392" data-name="Group 392">
    <path id="Path_497" data-name="Path 497" d="M14,2A12.014,12.014,0,0,0,2,14a11.852,11.852,0,0,0,.455,3.27.4.4,0,1,0,.769-.221A11.056,11.056,0,0,1,2.8,14a11.2,11.2,0,1,1,22.4,0,11.056,11.056,0,0,1-.424,3.05.4.4,0,1,0,.769.221A11.852,11.852,0,0,0,26,14,12.014,12.014,0,0,0,14,2Z" transform="translate(-2 -2)" fill="rgb(0, 255, 229)"/>
    <path id="Path_498" data-name="Path 498" d="M20.221,20.83a5.2,5.2,0,1,0-4.671,0,11.556,11.556,0,0,0-6.619,3.988,2.021,2.021,0,0,0,.059,2.626,12,12,0,0,0,17.79,0,2.021,2.021,0,0,0,.059-2.626A11.556,11.556,0,0,0,20.221,20.83Z" transform="translate(-5.885 -7.39)" fill="rgb(0, 255, 229)"/>
  </g>
</svg>
