<svg id="Component_74_2" data-name="Component 74 – 2" xmlns="http://www.w3.org/2000/svg" width="24" height="24" viewBox="0 0 24 24">
  <path id="Subtraction_14" data-name="Subtraction 14" d="M16.667,19.333H8.458l-2.23-4.69H11.6l-.708-2c.381-.305.753-.628,1.105-.961a19.009,19.009,0,0,0,2.764,1.993l.581.325L16,12.841l-.579-.328,0,0a18.461,18.461,0,0,1-2.477-1.788A14.029,14.029,0,0,0,15.09,7.6l.137-.271h1.439V6h-4V4.667H11.333V6H8.545L6.422,0H16.667A1.334,1.334,0,0,1,18,1.333V18A1.334,1.334,0,0,1,16.667,19.333ZM10.42,11.3h0L9.75,9.406a17.77,17.77,0,0,0,1.26,1.369c-.2.182-.394.358-.589.523Zm1.53-1.476h0a15.365,15.365,0,0,1-1.761-2.035l-.807.576L9.017,7.333h4.715A12.852,12.852,0,0,1,11.95,9.822Z" transform="translate(6 4.667)" fill="rgb(0, 255, 229)"/>
  <path id="Subtraction_15" data-name="Subtraction 15" d="M18,19.333H1.333A1.334,1.334,0,0,1,0,18V1.333A1.334,1.334,0,0,1,1.333,0h9.334L18,19.332ZM1.96.791C1.091.791.736,1.146.736,2.015v15.3c0,.847.377,1.224,1.224,1.224H16.78L10.047.791Z" transform="translate(0)" fill="rgb(0, 255, 229)"/>
  <path id="Path_528" data-name="Path 528" d="M16.448,20.667H13.541l-.671,2H11L14.177,14H15.8L19,22.667H17.13Zm-2.485-1.333h2.068L14.989,16.19Z" transform="translate(-7.667 -8.667)" fill="rgb(0, 255, 229)"/>
</svg>
