<svg id="圖層_1" data-name="圖層 1" xmlns="http://www.w3.org/2000/svg" xmlns:xlink="http://www.w3.org/1999/xlink" viewBox="0 0 24 24"><defs><style>.cls-1{fill:none;}.cls-2{clip-path:url(#clip-path);}.cls-3,.cls-4{fill:rgb(0, 255, 229);}.cls-4{fill-rule:evenodd;}</style><clipPath id="clip-path"><rect class="cls-1" width="24" height="24"/></clipPath></defs><g class="cls-2"><g id="icon_geofence" data-name="icon geofence"><g id="icon_geofence_setting" data-name="icon geofence setting"><rect id="Rectangle_1543" data-name="Rectangle 1543" class="cls-3" x="14.5" y="7.73" width="5.07" height="2.65" rx="0.36"/><rect id="Rectangle_1544" data-name="Rectangle 1544" class="cls-3" x="4.36" y="7.73" width="5.07" height="2.65" rx="0.36"/><rect id="Rectangle_1545" data-name="Rectangle 1545" class="cls-3" x="4.36" y="12.57" width="5.07" height="2.65" rx="0.36"/><rect id="Rectangle_1546" data-name="Rectangle 1546" class="cls-3" x="4.36" y="17.39" width="5.07" height="2.65" rx="0.36"/><path id="Path_3333" data-name="Path 3333" class="cls-4" d="M2.14.21A.34.34,0,0,0,1.68,0,.35.35,0,0,0,1.5.21L.05,3.11a.43.43,0,0,0,0,.16V23.55a.36.36,0,0,0,.36.36H3.27a.36.36,0,0,0,.36-.36h0V3.27a.43.43,0,0,0,0-.16Z"/><path id="Path_3334" data-name="Path 3334" class="cls-4" d="M23.88,3.11,22.43.21A.35.35,0,0,0,22,0a.32.32,0,0,0-.18.18l-1.45,2.9a.22.22,0,0,0,0,.16v7.85a.36.36,0,0,0,.22.33,7,7,0,0,1,2.75,2.22.36.36,0,0,0,.29.15h.11a.37.37,0,0,0,.25-.34V3.27a.26.26,0,0,0-.09-.16Z"/><path id="Path_3335" data-name="Path 3335" class="cls-4" d="M23.67,21.72h-.12a.41.41,0,0,0-.29.15,7.12,7.12,0,0,1-1.45,1.45.37.37,0,0,0-.07.51A.37.37,0,0,0,22,24h1.45a.36.36,0,0,0,.36-.36V22.1A.36.36,0,0,0,23.67,21.72Z"/><path id="Path_3336" data-name="Path 3336" class="cls-4" d="M10.88,17.75a6.76,6.76,0,0,1,2.75-5.47.37.37,0,0,0,.14-.29V3.27a.22.22,0,0,0,0-.16L12.32.21A.33.33,0,0,0,11.87,0a.32.32,0,0,0-.18.18l-1.45,2.9a.22.22,0,0,0,0,.16V23.55a.36.36,0,0,0,.36.36h2.9a.39.39,0,0,0,.36-.39.37.37,0,0,0-.14-.29,6.78,6.78,0,0,1-2.84-5.48Z"/><path id="Path_3337" data-name="Path 3337" class="cls-4" d="M22.67,21.15,22,19.83l.24-.57,1.44-.49a.43.43,0,0,0,.28-.39V17.07a.42.42,0,0,0-.28-.39l-1.44-.46L22,15.67l.66-1.35a.43.43,0,0,0-.09-.48l-.93-.93a.44.44,0,0,0-.29-.11.61.61,0,0,0-.19,0l-1.32.66-.55-.23-.5-1.45a.41.41,0,0,0-.38-.27H17.09a.42.42,0,0,0-.39.29l-.46,1.45-.57.23-1.35-.64h-.17a.4.4,0,0,0-.29.12l-.93.92a.4.4,0,0,0-.07.48l.65,1.32-.21.57-1.45.49a.42.42,0,0,0-.28.39v1.3a.41.41,0,0,0,.28.39l1.45.47.23.55-.65,1.35a.41.41,0,0,0,.08.48l.93.92a.4.4,0,0,0,.29.12h.19L15.69,22l.55.24.5,1.44a.41.41,0,0,0,.38.28h1.3a.38.38,0,0,0,.39-.29l.47-1.45.56-.23,1.35.64h.17a.4.4,0,0,0,.29-.12l.93-.93a.41.41,0,0,0,.09-.47Zm-4.92-1.38a2,2,0,1,1,.05,0Z"/></g></g></g></svg>